<?xml version="1.0" encoding="utf-8"?>
<!-- Generator: Adobe Illustrator 24.0.1, SVG Export Plug-In . SVG Version: 6.00 Build 0)  -->
<svg version="1.1" id="Layer_1" xmlns="http://www.w3.org/2000/svg" xmlns:xlink="http://www.w3.org/1999/xlink" x="0px" y="0px"
	 viewBox="0 0 500 500" style="enable-background:new 0 0 500 500;" xml:space="preserve">
<style type="text/css">
	.st0{fill:#F7EC14;}
</style>
<path class="st0" d="M388.6347656,370.0556641c1.0351563,4.8613281-2.0673828,9.6416016-6.9296875,10.6757813
	c-0.6308594,0.1347656-1.2617188,0.1992188-1.8818359,0.1992188c-4.1582031,0-7.8935547-2.8984375-8.7939453-7.1289063
	c-0.0419922-0.1894531-4.8291016-21.4775391-21.9931641-44.1308594
	c-22.8095703-30.1044922-55.7041016-48.3955078-97.7714844-54.3642578
	c-42.1254883-5.9785156-81.0195313,3.5830078-115.5996094,28.4150391
	c-26.1328125,18.7666016-39.8984375,39.7021484-40.034668,39.9111328
	c-2.7050781,4.1621094-8.2739258,5.3554688-12.4423828,2.6572266c-4.1674805-2.6992188-5.3666992-8.2558594-2.675293-12.4277344
	c0.6147461-0.953125,15.3837891-23.5732422,44.0483398-44.3251953
	c26.5488281-19.2197266,70.5185547-40.3793945,129.2329102-32.0527344
	c58.9042969,8.359375,92.4033203,38.3496094,110.1328125,62.0371094
	C383.203125,345.2753906,388.421875,369.0556641,388.6347656,370.0556641z M475.3349609,336.2060547
	c-0.5136719-4.9433594-4.9443359-8.5302734-9.8798828-8.0244141c-25.4306641,2.6367188-36.1728516,4.0957031-63.2939453,9.3310547
	c-4.8808594,0.9423828-8.0732422,5.6621094-7.1308594,10.5429688c0.8310547,4.3046875,4.6005859,7.2958984,8.8271484,7.2958984
	c0.5654297,0,1.1396484-0.0537109,1.7158203-0.1650391c26.4443359-5.1054688,36.9238281-6.5283203,61.7373047-9.1005859
	C472.2548828,345.5732422,475.8476563,341.1494141,475.3349609,336.2060547z M465.9599609,257.8505859
	c-2.9042969-4.03125-8.5283203-4.9482422-12.5634766-2.0419922c-14.6464844,10.5507813-43.5449219,30.8427734-72.53125,48.2089844
	c-4.2646484,2.5546875-5.6503906,8.0820313-3.0957031,12.3457031c1.6875,2.8164063,4.6699219,4.3759766,7.7294922,4.3759766
	c1.5732422,0,3.1679688-0.4130859,4.6162109-1.2802734c29.5546875-17.7070313,58.9257813-38.328125,73.8027344-49.0449219
	C467.9511719,267.5087891,468.8652344,261.8837891,465.9599609,257.8505859z M349.1699219,287.1865234
	c1.6308594,1.2470703,3.5537109,1.8505859,5.4599609,1.8505859c2.7080078,0,5.3837891-1.2158203,7.15625-3.5332031
	c17.3447266-22.6806641,30.8574219-38.7802734,46.640625-55.5708008c3.4042969-3.621582,3.2285156-9.3173828-0.3935547-12.7216797
	c-3.6210938-3.4042969-9.3193359-3.2290039-12.7216797,0.3935547
	c-16.2285156,17.2636719-30.0839844,33.7670898-47.8242188,56.965332
	C344.4677734,278.5185547,345.2207031,284.1669922,349.1699219,287.1865234z M302.5322266,257.9814453
	c1.4306641,0.8388672,2.9960938,1.2363281,4.5419922,1.2363281c3.0898438,0,6.0986328-1.5927734,7.7734375-4.4501953
	c18.5986328-31.7373047,34.7255859-62.0605469,47.9326172-90.1279297c2.1162109-4.4975586,0.1855469-9.859375-4.3115234-11.9755859
	c-4.4941406-2.1157227-9.859375-0.1855469-11.9755859,4.3115234c-12.9775391,27.5795898-28.8496094,57.4194336-47.1748047,88.690918
	C296.8046875,249.9550781,298.2441406,255.46875,302.5322266,257.9814453z M259.6044922,244.4873047
	c0.3066406,0.0307617,0.6113281,0.0458984,0.9140625,0.0458984c4.5644531,0,8.4755859-3.4584961,8.9433594-8.0966797
	c3.6767578-36.4291992,8.8935547-73.3569336,15.5058594-109.7568359c0.8876953-4.890625-2.3564453-9.5751953-7.2470703-10.4633789
	c-4.8886719-0.8916016-9.5742188,2.3554688-10.4638672,7.246582c-6.6962891,36.8647461-11.9794922,74.2666016-15.703125,111.1660156
	C251.0546875,239.574707,254.6591797,243.9882813,259.6044922,244.4873047z M200.3999023,237.8583984
	c1.0761719,4.0229492,4.7133789,6.6767578,8.6884766,6.6767578c0.7700195,0,1.5527344-0.0996094,2.331543-0.3081055
	c4.8017578-1.284668,7.6533203-6.2182617,6.3686523-11.0200195c-7.5898438-28.3720703-14.4282227-59.8510742-20.3251953-93.5620117
	c-0.8564453-4.8964844-5.5263672-8.1728516-10.4160156-7.3144531c-4.8959961,0.8564453-8.1708984,5.5200195-7.3144531,10.4160156
	C185.7207031,176.9770508,192.6738281,208.9770508,200.3999023,237.8583984z M145.4648438,248.1635742
	c1.5092773,3.3149414,4.7773438,5.2729492,8.1962891,5.2729492c1.2470703,0,2.5151367-0.2607422,3.7241211-0.8115234
	c4.5239258-2.0600586,6.5209961-7.3969727,4.4614258-11.9204102c-9.4946289-20.8515625-17.3041992-39.4599609-23.875-56.8876953
	c-1.7539063-4.6513672-6.9448242-6.9990234-11.5966797-5.246582c-4.6508789,1.753418-6.9995117,6.9453125-5.2460938,11.5961914
	C127.8422852,207.9731445,135.8027344,226.9443359,145.4648438,248.1635742z M107.3032227,275.2548828
	c1.7802734,2.0751953,4.2998047,3.140625,6.8354492,3.140625c2.0737305,0,4.1577148-0.7128906,5.8554688-2.1689453
	c3.7724609-3.2363281,4.2075195-8.9179688,0.9711914-12.6904297c-16.6577148-19.418457-35.3203125-38.6733398-55.4697266-57.2294922
	c-3.6552734-3.3671875-9.3491211-3.1323242-12.7167969,0.5234375c-3.3671875,3.65625-3.1333008,9.3496094,0.5234375,12.7167969
	C72.9345703,237.6274414,91.1030273,256.3701172,107.3032227,275.2548828z M83.1791992,307.4970703
	c3.6303711,0,7.0517578-2.2128906,8.4160156-5.8095703c1.7631836-4.6464844-0.574707-9.84375-5.2216797-11.6074219
	c-16.1655273-6.1328125-32.5136719-13.4990234-48.5908203-21.8935547c-4.4057617-2.2988281-9.8427734-0.59375-12.1435547,3.8134766
	c-2.300293,4.40625-0.59375,9.8427734,3.8125,12.1435547c16.7055664,8.7216797,33.7084961,16.3818359,50.5361328,22.7666016
	C81.0390625,307.3085938,82.1176758,307.4970703,83.1791992,307.4970703z"/>
</svg>
